C:\Users\u0088756\Documents\documenten\software\SoftwareProjects\DC_TrackingSimulation\Data\FitMuscleFunctions\dummy_motion_LeftSubtalar.mot
nRows=16
nColumns=17

name C:\Users\u0088756\Documents\documenten\software\SoftwareProjects\DC_TrackingSimulation\Data\FitMuscleFunctions\dummy_motion_LeftSubtalar.mot
datacolumns 17
datarows 16
range 12.5100000000 12.6600000000
endheader
time	first_body_list	first_body_rotation	first_body_tilt	first_body_tx	first_body_ty	first_body_tz	subtalar_angle_l	ankle_angle_l	knee_angle_l	hip_flexion_l	hip_adduction_l	hip_rotation_l	lumbar_extension	lumbar_bending	lumbar_rotation	mtp_angle_l
       12.5100000000	        0.0000000000	        0.0000000000	        0.0000000000	        0.0000000000	        0.0000000000	        0.0000000000	      -26.6687534409	      -40.4552362146	      -50.4362547059	       -3.7574634875	        1.4397481909	      -13.3942563301	      -49.0548451850	       29.4887904133	       13.2562654615	        0.0000000000	
       12.5200000000	        0.0000000000	        0.0000000000	        0.0000000000	        0.0000000000	        0.0000000000	        0.0000000000	       28.6125408592	       46.9179736537	     -106.9266196801	       90.7341119468	       -8.3428267454	      -12.9498377330	      -39.2715135447	       32.5433572212	       54.3197948953	        0.0000000000	
       12.5300000000	        0.0000000000	        0.0000000000	        0.0000000000	        0.0000000000	        0.0000000000	        0.0000000000	      -17.0833215960	       50.3598905956	     -113.7454376248	      119.0247247130	      -19.5647920295	       18.1674081749	       21.7507227820	        4.2846878394	       28.9157057449	        0.0000000000	
       12.5400000000	        0.0000000000	        0.0000000000	        0.0000000000	        0.0000000000	        0.0000000000	        0.0000000000	       -0.0727130995	       39.8342296070	      -89.0539342339	       69.2323922376	       -0.0924605382	        8.6079230484	       48.2678671024	      -27.0665492891	       18.1010800651	        0.0000000000	
       12.5500000000	        0.0000000000	        0.0000000000	        0.0000000000	        0.0000000000	        0.0000000000	        0.0000000000	      -11.3539890778	      -20.4180997990	      -49.4935216658	      -42.7561579329	       37.8189031891	       -0.0675747518	       -1.9541992243	       -3.5122825598	       15.9588228537	        0.0000000000	
       12.5600000000	        0.0000000000	        0.0000000000	        0.0000000000	        0.0000000000	        0.0000000000	        0.0000000000	      -25.1938951748	      -27.9194819032	      -14.1638117945	      114.1484717842	      -38.8486922537	       12.3641200158	       22.9828353245	      -46.9963276395	      -18.6827893083	        0.0000000000	
       12.5700000000	        0.0000000000	        0.0000000000	        0.0000000000	        0.0000000000	        0.0000000000	        0.0000000000	        1.6522843204	       21.0704329467	     -117.0787379621	       59.5175972022	      -19.0856334208	       16.7967928591	       37.9627932509	       44.5164306479	        6.9705231728	        0.0000000000	
       12.5800000000	        0.0000000000	        0.0000000000	        0.0000000000	        0.0000000000	        0.0000000000	        0.0000000000	      -18.2588098321	       45.5268788982	     -106.5373824457	      -25.3522648823	        7.7865664320	      -13.7545963041	      -21.7730584730	       21.7086910709	       58.1133970711	        0.0000000000	
       12.5900000000	        0.0000000000	        0.0000000000	        0.0000000000	        0.0000000000	        0.0000000000	        0.0000000000	       18.1521655322	      -22.9831709523	      -58.3458248860	       45.4926931475	       39.6866905920	       -3.3008439681	       38.0647841531	      -35.0046073486	       35.2865126989	        0.0000000000	
       12.6000000000	        0.0000000000	        0.0000000000	        0.0000000000	        0.0000000000	        0.0000000000	        0.0000000000	        7.7032153636	      -56.5539470231	      -52.6118516138	       35.1523374128	       13.3648677109	       28.7589026599	      -31.2523806496	        3.7795529194	      -21.6546474355	        0.0000000000	
       12.6100000000	        0.0000000000	        0.0000000000	        0.0000000000	        0.0000000000	        0.0000000000	        0.0000000000	        3.9597763165	        8.5614428229	     -104.2522113629	       -8.0030243801	       -7.6434392031	       30.6125350729	      -46.1686743923	      -56.0562843576	       47.1969333494	        0.0000000000	
       12.6200000000	        0.0000000000	        0.0000000000	        0.0000000000	        0.0000000000	        0.0000000000	        0.0000000000	      -25.7053584414	       25.0785983919	     -109.2810706175	       -9.7410215019	       17.8560572808	      -24.0973913194	        9.9967327346	       26.0115781632	       38.3473042520	        0.0000000000	
       12.6300000000	        0.0000000000	        0.0000000000	        0.0000000000	        0.0000000000	        0.0000000000	        0.0000000000	        1.6386278287	       -0.6175219032	      -50.2178771530	        6.6321985925	       32.7940965977	       -4.1155185515	       32.8543784535	       44.2634787140	      -27.5768480035	        0.0000000000	
       12.6400000000	        0.0000000000	        0.0000000000	        0.0000000000	        0.0000000000	        0.0000000000	        0.0000000000	      -26.6853758179	      -17.4285987839	      -29.9355885046	      111.8502254522	      -11.0866580053	       22.9906209036	       29.5336375744	       44.2067045301	        6.7159091213	        0.0000000000	
       12.6500000000	        0.0000000000	        0.0000000000	        0.0000000000	        0.0000000000	        0.0000000000	        0.0000000000	       -5.1601847889	       12.1136260139	      -97.6631907947	      -52.5168838558	       27.9244690628	       17.7877498071	       49.9292658688	      -10.7354462262	      -41.5726177749	        0.0000000000	
       12.6600000000	        0.0000000000	        0.0000000000	        0.0000000000	        0.0000000000	        0.0000000000	        0.0000000000	      -12.7774029972	       39.7563061694	      -87.4955195079	      -14.0006544371	        3.3138945990	       -1.4505024489	        2.4486388465	       19.6017416193	       59.0881157030	        0.0000000000	
